<?xml version="1.0" encoding="UTF-8"?>
<!-- Generator: Adobe Illustrator 19.0.0, SVG Export Plug-In . SVG Version: 6.00 Build 0)  -->
<svg version="1.1" id="图层_1" xmlns="http://www.w3.org/2000/svg" xmlns:xlink="http://www.w3.org/1999/xlink" x="0px" y="0px" viewBox="0 0 30 30" style="enable-background:new 0 0 30 30;" xml:space="preserve">
<style type="text/css">
	.st0{clip-path:url(#SVGID_2_);fill-rule:evenodd;clip-rule:evenodd;fill:#4786FF;}
	.st1{clip-path:url(#SVGID_2_);fill:#FFFFFF;}
</style>
<g>
	<defs>
		<rect id="SVGID_1_" width="30" height="30"/>
	</defs>
	<clipPath id="SVGID_2_">
		<use xlink:href="#SVGID_1_" style="overflow:visible;"/>
	</clipPath>
	<path class="st0" d="M30,15c0,8.3-6.7,15-15,15S0,23.3,0,15S6.7,0,15,0S30,6.7,30,15"/>
	<path class="st1" d="M22.1,12.7c0,0.1-0.1,0.3-0.2,0.6h0l0,0c-0.6,1.3-2.3,4-2.3,4s0,0,0,0l-0.5,0.8h2.3L17,24l1-4h-1.8l0.6-2.6   c-0.5,0.1-1.1,0.3-1.8,0.5c0,0-1,0.6-2.8-1.1c0,0-1.2-1.1-0.5-1.4c0.3-0.1,1.5-0.3,2.4-0.4c1.2-0.2,2-0.3,2-0.3s-3.8,0.1-4.7-0.1   c-0.9-0.1-2.1-1.7-2.3-3c0,0-0.4-0.7,0.8-0.4c1.2,0.3,6.2,1.4,6.2,1.4s-6.4-2-6.9-2.5c-0.4-0.5-1.3-2.6-1.2-4c0,0,0-0.3,0.4-0.2   c0,0,4.8,2.2,8,3.4C19.6,10.6,22.4,11.2,22.1,12.7"/>
</g>
</svg>