<?xml version="1.0" encoding="utf-8"?>
<!-- Generator: Adobe Illustrator 19.0.0, SVG Export Plug-In . SVG Version: 6.00 Build 0)  -->
<svg version="1.1" id="图层_1" xmlns="http://www.w3.org/2000/svg" xmlns:xlink="http://www.w3.org/1999/xlink" x="0px" y="0px"
	 viewBox="0 0 30 30" style="enable-background:new 0 0 30 30;" xml:space="preserve">
<style type="text/css">
	.st0{clip-path:url(#SVGID_2_);fill:#48ACFF;}
	.st1{clip-path:url(#SVGID_2_);fill:#FFFFFF;}
</style>
<g>
	<defs>
		<rect id="SVGID_1_" width="30" height="30"/>
	</defs>
	<clipPath id="SVGID_2_">
		<use xlink:href="#SVGID_1_"  style="overflow:visible;"/>
	</clipPath>
	<path class="st0" d="M30,15c0,8.3-6.7,15-15,15S0,23.3,0,15S6.7,0,15,0S30,6.7,30,15"/>
	<path class="st1" d="M17.2,23.3c0,0.3-1.7,0.6-3.9,0.6s-3.8,0.2-3.9-0.3c-0.2-0.5,1-1.2,3.2-1.3C14.8,22.2,17.2,23,17.2,23.3"/>
	<path class="st1" d="M12.8,23.3c0,0.3,1.7,0.6,3.9,0.6s3.8,0.2,3.9-0.3c0.2-0.5-1-1.2-3.2-1.3C15.3,22.2,12.8,23,12.8,23.3"/>
	<path class="st1" d="M9.4,13.6l-1,2.6c0,0-1.5,3.8-0.7,4.6c0.2,0.2,1.6-1.9,1.6-1.9s0.1,4.7,5.8,4.9c5.7,0,5.8-4.9,5.8-4.9
		s1,1.7,1.5,1.8c0.5,0.1,0.2-3.1-1.7-7.1c0.1-2.2-0.3-7.4-5.6-7.6C9.6,6.2,9.4,11.6,9.4,13.6"/>
</g>
</svg>
