<?xml version="1.0" encoding="UTF-8"?>
<!-- Generator: Adobe Illustrator 19.0.0, SVG Export Plug-In . SVG Version: 6.00 Build 0)  -->
<svg version="1.1" id="图层_1" xmlns="http://www.w3.org/2000/svg" xmlns:xlink="http://www.w3.org/1999/xlink" x="0px" y="0px" viewBox="0 0 30 30" style="enable-background:new 0 0 30 30;" xml:space="preserve">
<style type="text/css">
	.st0{clip-path:url(#SVGID_2_);fill:#D72829;}
	.st1{clip-path:url(#SVGID_2_);fill:#FFFFFF;}
</style>
<g>
	<defs>
		<rect id="SVGID_1_" width="30" height="30"/>
	</defs>
	<clipPath id="SVGID_2_">
		<use xlink:href="#SVGID_1_" style="overflow:visible;"/>
	</clipPath>
	<path class="st0" d="M30,15c0,8.3-6.7,15-15,15S0,23.3,0,15S6.7,0,15,0S30,6.7,30,15"/>
	<path class="st1" d="M19.6,15.1c-0.3-0.1-0.5-0.1-0.3-0.5c0.3-0.8,0.3-1.5,0-2c-0.6-0.9-2.3-0.9-4.3,0c0,0-0.6,0.3-0.5-0.2   c0.3-1,0.3-1.8-0.2-2.3c-1.1-1.1-3.9,0-6.3,2.5c-1.8,1.8-2.9,3.8-2.9,5.5c0,3.2,4.1,5.4,8.1,5.4c5.2,0,8.7-3.3,8.7-5.8   C22,16.3,20.7,15.4,19.6,15.1 M13.3,22c-3.2,0.3-5.9-1.1-6.1-3.2c-0.2-2.1,2.2-4.1,5.4-4.4c3.2-0.3,5.9,1.1,6.1,3.2   C18.9,19.8,16.4,21.7,13.3,22"/>
	<path class="st1" d="M24.8,12.4c0-3.3-2.7-5.9-5.9-5.9c-0.4,0-0.7,0.3-0.7,0.7c0,0.4,0.3,0.7,0.7,0.7c2.5,0,4.5,2,4.5,4.6   c0,0.4,0.3,0.7,0.7,0.7C24.5,13.1,24.8,12.8,24.8,12.4L24.8,12.4z"/>
	<path class="st1" d="M22.1,12.3c-0.3-1.5-1.5-2.8-3.1-3.1c-0.4-0.1-0.7,0.2-0.8,0.5c-0.1,0.4,0.2,0.7,0.5,0.8c1,0.2,1.8,1,2,2   c0.1,0.4,0.4,0.6,0.8,0.5C21.9,13.1,22.2,12.7,22.1,12.3"/>
	<path class="st1" d="M14.3,18c-0.2-1.1-1.4-1.7-2.7-1.5c-1.3,0.3-2.2,1.3-1.9,2.4c0.2,1.1,1.4,1.7,2.7,1.5   C13.7,20.1,14.6,19,14.3,18 M11,19.9c-0.5,0-1-0.4-1-1c0-0.5,0.4-1,1-1c0.5,0,1,0.4,1,1C12,19.5,11.5,19.9,11,19.9 M12.6,18.5   c-0.3,0-0.5-0.2-0.5-0.5c0-0.3,0.2-0.5,0.5-0.5c0.3,0,0.5,0.2,0.5,0.5C13.1,18.2,12.9,18.5,12.6,18.5"/>
</g>
</svg>