<?xml version="1.0" encoding="UTF-8"?>
<!-- Generator: Adobe Illustrator 19.0.0, SVG Export Plug-In . SVG Version: 6.00 Build 0)  -->
<svg version="1.1" id="图层_1" xmlns="http://www.w3.org/2000/svg" xmlns:xlink="http://www.w3.org/1999/xlink" x="0px" y="0px" viewBox="0 0 30 30" style="enable-background:new 0 0 30 30;" xml:space="preserve">
<style type="text/css">
	.st0{clip-path:url(#SVGID_2_);fill:#06BB14;}
	.st1{clip-path:url(#SVGID_2_);fill:#FFFFFF;}
</style>
<g>
	<defs>
		<rect id="SVGID_1_" width="30" height="30"/>
	</defs>
	<clipPath id="SVGID_2_">
		<use xlink:href="#SVGID_1_" style="overflow:visible;"/>
	</clipPath>
	<path class="st0" d="M30,15c0,8.3-6.7,15-15,15C6.7,30,0,23.3,0,15S6.7,0,15,0C23.3,0,30,6.7,30,15"/>
	<path class="st1" d="M12.1,7C8.2,7,5,9.6,5,12.9c0,1.9,1.1,3.5,2.8,4.7l-0.7,2.1l2.5-1.2c0.9,0.2,1.6,0.3,2.5,0.3   c0.2,0,0.4,0,0.7,0c-0.1-0.5-0.2-0.9-0.2-1.4c0-3,2.7-5.5,6-5.5c0.2,0,0.5,0,0.7,0C18.6,9.1,15.6,7,12.1,7 M9.7,11.9   c-0.6,0-1-0.5-1-1c0-0.6,0.5-1,1-1c0.6,0,1,0.5,1,1C10.7,11.5,10.2,11.9,9.7,11.9 M14.6,11.9c-0.6,0-1-0.5-1-1c0-0.6,0.5-1,1-1   c0.4,0,0.7,0.2,0.9,0.5c0,0,0.1,0.1,0.1,0.1c0,0,0,0.1,0,0.1c0,0,0,0.1,0,0.1c0,0.1,0,0.1,0,0.2C15.6,11.5,15.2,11.9,14.6,11.9    M25,17.2c0-2.8-2.8-5-6-5c-3.4,0-6,2.3-6,5c0,2.8,2.7,5,6,5c0.7,0,1.4-0.2,2.1-0.3l1.9,1l-0.5-1.7C23.9,20.2,25,18.8,25,17.2    M17.1,16.5c-0.5,0-0.8-0.4-0.8-0.8c0-0.5,0.4-0.8,0.8-0.8c0.5,0,0.8,0.4,0.8,0.8C18,16.2,17.6,16.5,17.1,16.5 M21,16.5   c-0.5,0-0.8-0.4-0.8-0.8c0-0.5,0.4-0.8,0.8-0.8c0.5,0,0.8,0.4,0.8,0.8C21.8,16.2,21.5,16.5,21,16.5"/>
</g>
</svg>